# xmcd
#
# Track frame offsets:
#	150
#	13888
#	26825
#	38763
#	50425
#	59763
#	73150
#	85738
#	98425
#	109150
#	118775
#	129763
#	139763
#	152750
#	164513
#	177400
#
# Disc length: 2476
#
# Revision: 1
# Processed by: cddbd v1.5.1PL0 Copyright (c) Steve Scherf et al.
# Submitted via: CDex 1.50
# Normalized: r0:DSETVAR1,TDELIM( - )
#
DISCID=dc09aa10
DTITLE=Various Artist - Country Classics - 16 Golden Greats
DYEAR=1900
DGENRE=Country
TTITLE0=Jimmy Dean - Big Bad John
TTITLE1=Lynn Anderson - Rose Garden
TTITLE2=Skeeter Davis - I Can't Help You (I'm Falling Too)
TTITLE3=Don Gibson - Oh Lonesome Me
TTITLE4=The Harden Trio - Tippy Toeing
TTITLE5=David Houston - Almost Persuaded
TTITLE6=Jack and Misty - Tennessee Birdwalk
TTITLE7=Claude King - Wolverton Mountain
TTITLE8=Hank Locklin - Please Help Me I'm Falling
TTITLE9=Ned Miller - From A Jack To A King
TTITLE10=Stonewall Jackson - Waterloo
TTITLE11=David Houston - Living In A House Full Of Love
TTITLE12=Wanda Jackson - I Fall To Pieces
TTITLE13=Little Jimmy Dickins - May The Bird Of Paradise Fly Up Your Nose
TTITLE14=Faron Young - It's Four In The Morning
TTITLE15=Bob Luman - Let's Think About Living
EXTD=
EXTT0=
EXTT1=
EXTT2=
EXTT3=
EXTT4=
EXTT5=
EXTT6=
EXTT7=
EXTT8=
EXTT9=
EXTT10=
EXTT11=
EXTT12=
EXTT13=
EXTT14=
EXTT15=
PLAYORDER=
